<svg id="Laag_1" data-name="Laag 1" xmlns="http://www.w3.org/2000/svg" viewBox="0 0 348 428.3"><defs><style>.cls-1,.cls-2{fill:none;stroke:#2e2e2f;stroke-linecap:round;stroke-miterlimit:10;}.cls-1{stroke-width:23px;}.cls-2{stroke-width:21.03px;}</style></defs><line class="cls-1" x1="88.51" y1="54.52" x2="17.49" y2="54.52"/><line class="cls-1" x1="43.5" y1="20.52" x2="11.5" y2="54.52"/><line class="cls-2" x1="43.5" y1="87.06" x2="11.5" y2="55.98"/><line class="cls-1" x1="213.5" y1="53.79" x2="284.53" y2="53.79"/><line class="cls-1" x1="258.51" y1="87.79" x2="290.51" y2="53.79"/><line class="cls-2" x1="258.51" y1="21.25" x2="290.51" y2="52.33"/><path class="cls-1" d="M254,371V158.27a26,26,0,0,1,52,.73V293c.74,3.47,1.7,4.44,2.51,4.57,4.66.79,6.94-25.29,21.79-31,6.5-2.49,15.06-.94,20.42,3.57C364.19,281.5,358,309.7,361,310c2.13.21,2.12-14.51,12.36-21.79A23,23,0,0,1,390,284.52c12.82,2.32,23.71,19.47,24,42.48.08,1.61.39,2,.66,2.08,2.13.55,4.54-19.52,17.22-25.55A19.46,19.46,0,0,1,443,302c12.63,2,23,16.67,23,25V433c-6.11,49.65-42.18,90.41-90,102-45.1,10.93-93-5.93-122-43L174,325.14c-4.4-9.19-.26-31.57,12-38.14,8.49-4.55,20.05-.44,26.77,3.94,8,5.18,10.74,11.81,19.66,34,13.49,33.64,19.94,50.47,21.44,50C254.16,374.94,254.38,374.16,254,371Z" transform="translate(-129.5 -121.48)"/></svg>